<?xml version="1.0" standalone="no"?> <!DOCTYPE svg PUBLIC "-//W3C//DTD SVG 1.0//EN" "http://www.w3.org/TR/2001/REC-SVG-20010904/DTD/svg10.dtd" > <svg xmlns="http://www.w3.org/2000/svg" width="100%" height="100%">
<defs >
<font id="latolightitalic" horiz-adv-x="1022" ><font-face
    font-family="Lato"
    units-per-em="2000"
    panose-1="2 15 5 2 2 2 4 3 2 3"
    ascent="1974"
    descent="-426"
    alphabetic="0" />
<missing-glyph horiz-adv-x="1025" d="M262 1134Q283 1154 308 1172T364 1204T429 1226T507 1235Q561 1235 607 1220T688 1175T742 1104T762 1010Q762 955 746 916T705 847T651 795T597 752T553 713T532 668L522 554H457L451 676Q449 707 465 730T505 775T559
817T614 864T656 924T673 1005Q673 1041 659 1069T622 1116T567 1146T500 1157Q454 1157 421 1146T365 1120T329 1094T308 1082Q294 1082 287 1093L262 1134ZM410 265Q410 297 432 320T487 343Q519 343 541 320T563 265Q563 233 541 210T487 187Q454 187 432 210T410
265ZM47 1415H978V0H47V1415ZM82 36H941V1379H82V36Z" />
<glyph unicode=" " glyph-name="null" horiz-adv-x="504" />
<glyph unicode="!" glyph-name="null" horiz-adv-x="474" d="M378 1415L308 843Q302 798 296 758T283 677T268 589T249 487H187Q191 543 194 589T200 676T208 758T217 843L287 1415H378ZM89 77Q89 96 96 113T115 142T144 162T181 170Q200 170 217 163T246 143T266
113T274 77Q274 57 267 41T247 12T217 -8T181 -15Q142 -15 116 11T89 77Z" />
<glyph unicode="&quot;" glyph-name="null" horiz-adv-x="637" d="M323 1415L287 1123L261 969Q257 953 250 944T225 935Q211 935 205 944T197 969L207 1123L245 1415H323ZM590 1415L554 1123L528 969Q524 953 517 944T492 935Q478 935 472 944T464 969L474 1123L512
1415H590Z" />
<glyph unicode="#" glyph-name="null" horiz-adv-x="1160" d="M804 903H505L373 512H673L804 903ZM1125 971L1114 935Q1107 903 1068 903H882L750 512H977Q993 512 1000 503T1002 472L994 443H731L584 0H544Q528 0 520 11T520 43L654 443H354L219 39Q213 18 200
9T169 0H128L276 443H93Q59 443 69 483L76 512H295L427 903H173L182 940Q189 971 230 971H445L582 1377Q594 1415 631 1415H672L522 971H822L971 1415H1012Q1028 1415 1036 1404T1037 1374L900 971H1125Z" />
<glyph unicode="$" glyph-name="null" horiz-adv-x="1160" d="M682 1351Q599 1347 535 1320T428 1251T363 1155T341 1043Q341 989 360 951T414 884T492 834T586 795L682 1351ZM522 63Q611 68 681 99T801 179T876 293T902 430Q902 488 880 528T820 597T733 646T629
685L522 63ZM758 1429Q858 1421 929 1385T1055 1283L1030 1250Q1018 1234 1003 1234Q991 1234 974 1250T927 1288T854 1327T744 1351L645 775Q709 753 771 729T882 670T962 582T993 452Q993 360 959 278T862 132T710 29T509 -15L472 -228Q470 -240 461 -249T439
-258H404L446 -15Q318 -9 230 40T79 169L110 207Q124 221 140 221Q149 221 160 210T189 183T229 146T285 109T360 79T459 63L570 704Q510 724 453 748T352 808T280 895T253 1023Q253 1101 283 1173T371 1302T510 1392T695 1430L724 1596Q726 1610 735 1618T757
1627H792L758 1429Z" />
<glyph unicode="%" glyph-name="null" horiz-adv-x="1445" d="M708 1137Q708 1034 681 956T608 826T505 748T385 722Q334 722 291 741T216 796T168 887T150 1013Q150 1116 176 1194T246 1324T348 1403T472 1430Q523 1430 566 1411T640 1355T690 1264T708 1137ZM634
1136Q634 1196 621 1239T585 1311T532 1354T465 1368Q417 1368 373 1348T296 1284T242 1173T222 1013Q222 953 235 910T271 839T325 798T393 784Q441 784 484 804T561 867T614 976T634 1136ZM1235 1397Q1243 1405 1251 1410T1273 1415H1338L229 17Q223 9 214 5T194
0H128L1235 1397ZM1323 398Q1323 295 1296 218T1223 88T1120 10T1000 -17Q949 -17 906 2T831 58T782 149T764 274Q764 377 790 455T860 586T963 665T1087 692Q1138 692 1181 673T1255 617T1305 525T1323 398ZM1249 398Q1249 458 1236 501T1200 573T1146 615T1079
629Q1031 629 987 609T910 545T857 434T837 274Q837 215 850 172T885 101T939 60T1007 46Q1055 46 1098 66T1175 129T1229 238T1249 398Z" />
<glyph unicode="&amp;" glyph-name="null" horiz-adv-x="1287" d="M476 737Q405 707 348 664T251 569T188 455T166 328Q166 262 189 212T249 127T333 76T431 59Q493 59 551 75T661 121T761 191T848 278L483 728L476 737ZM1191 0H1114Q1089 0 1076 6T1049 29L895
219Q848 168 794 125T679 50T551 2T412 -16Q342 -16 280 6T172 71T98 176T71 316Q71 398 100 470T179 603T296 710T439 786Q391 856 367 922T343 1059Q343 1139 370 1207T446 1325T563 1403T713 1431Q776 1431 827 1410T916 1352T973 1262T993 1148L942 1139Q916
1134 911 1162Q909 1191 897 1225T861 1289T798 1338T706 1358Q644 1358 594 1336T507 1276T450 1185T430 1070Q430 1001 461 930T552 786L905 352Q954 425 986 501T1033 649Q1038 674 1060 674H1121Q1107 580 1065 481T955 290L1191 0Z" />
<glyph unicode="&apos;" glyph-name="null" horiz-adv-x="369" d="M323 1415L287 1123L261 969Q257 953 250 944T225 935Q211 935 205 944T197 969L207 1123L245 1415H323Z" />
<glyph unicode="(" glyph-name="null" horiz-adv-x="497" d="M189 450Q189 371 197 287T221 120T262 -44T320 -197Q328 -214 323 -224T308 -239L265 -264Q223 -176 193 -85T143 95T115 271T106 438Q106 524 111 606T131 772T172 940T240 1118T342 1310T484 1525L523
1500Q530 1495 532 1485T524 1458Q441 1339 379 1225T274 991T211 739T189 450Z" />
<glyph unicode=")" glyph-name="null" horiz-adv-x="497" d="M316 811Q316 890 308 974T282 1141T241 1305T183 1458Q176 1475 181 1485T195 1500L240 1525Q282 1436 312 1346T361 1166T389 991T398 823Q398 737 393 655T374 489T333 321T264 143T162 -49T20 -264L-18
-239Q-26 -234 -28 -224T-19 -197Q63 -78 126 41T231 283T294 537T316 811Z" />
<glyph unicode="*" glyph-name="null" horiz-adv-x="787" d="M545 1215Q529 1207 516 1202T485 1194Q503 1192 515 1188T540 1175L701 1065L671 1022L512 1132Q498 1140 490 1147T472 1170Q476 1153 477 1141T476 1112L450 898H400L426 1112Q428 1129 432 1142T447
1172Q433 1157 423 1149T397 1132L211 1022L192 1065L377 1175Q393 1184 406 1188T438 1194V1195Q419 1198 408 1202T382 1215L223 1325L253 1369L412 1259Q426 1250 434 1240T453 1213Q448 1233 446 1247T446 1278L473 1493H523L496 1279Q494 1261 490 1248T475
1215Q488 1232 499 1241T527 1259L713 1369L731 1325L545 1215Z" />
<glyph unicode="+" glyph-name="null" horiz-adv-x="1160" d="M1054 635H622L566 182H490L546 635H116L124 706H554L610 1157H686L630 706H1063L1054 635Z" />
<glyph unicode="," glyph-name="null" horiz-adv-x="424" d="M69 -238Q64 -234 63 -230T62 -220Q62 -212 77 -194T113 -147T151 -81T174 1Q159 -4 143 -4Q106 -4 83 21T59 85Q59 120 83 145T146 170Q189 170 212 141T236 63Q236 22 226 -20T195 -104T147 -183T85
-253L69 -238Z" />
<glyph unicode="-" glyph-name="null" horiz-adv-x="712" d="M145 632H573L564 554H134L145 632Z" />
<glyph unicode="." glyph-name="null" horiz-adv-x="459" d="M76 77Q76 96 83 113T102 142T131 162T168 170Q187 170 204 163T233 143T253 113T261 77Q261 57 254 41T234 12T204 -8T168 -15Q129 -15 103 11T76 77Z" />
<glyph unicode="/" glyph-name="null" horiz-adv-x="809" d="M87 -47Q78 -66 62 -75T29 -84H-9L742 1409Q759 1445 798 1445H837L87 -47Z" />
<glyph unicode="0" glyph-name="null" horiz-adv-x="1160" d="M1072 862Q1072 639 1026 474T901 201T719 39T504 -15Q420 -15 348 20T224 127T143 304T113 553Q113 775 159 940T284 1214T465 1377T681 1431Q765 1431 836 1396T960 1289T1042 1111T1072 862ZM976
867Q976 993 953 1084T888 1235T791 1324T671 1353Q582 1353 499 1307T351 1163T247 913T208 549Q208 423 231 331T296 180T393 92T513 63Q602 63 685 109T833 252T937 502T976 867Z" />
<glyph unicode="1" glyph-name="null" horiz-adv-x="1160" d="M906 71L897 0H223L233 71H531L672 1226Q674 1243 677 1260T684 1296L366 1018Q350 1007 337 1010T318 1021L295 1060L716 1421H789L624 71H906Z" />
<glyph unicode="2" glyph-name="null" horiz-adv-x="1160" d="M901 87Q917 87 925 78T931 54L924 0H81L86 33Q87 44 93 55T109 74L612 564Q681 632 739 693T840 818T907 948T931 1094Q931 1160 911 1208T857 1289T777 1336T680 1352Q619 1352 565 1332T467 1275T391
1187T341 1075Q333 1054 321 1047T289 1042L242 1049Q265 1139 308 1210T410 1330T541 1405T694 1431Q763 1431 823 1410T929 1348T1000 1246T1026 1103Q1026 1011 998 935T922 791T811 659T678 526L212 71Q244 79 278 83T347 87H901Z" />
<glyph unicode="3" glyph-name="null" horiz-adv-x="1160" d="M243 1049Q266 1139 309 1210T411 1330T542 1405T694 1431Q763 1431 822 1411T926 1352T995 1255T1020 1121Q1020 1040 997 977T932 865T836 785T716 737Q779 724 826 697T905 631T953 543T969 435Q969
338 931 256T829 113T679 18T497 -16Q386 -16 316 16T204 101T143 217T115 346L153 361Q170 368 186 365T208 342Q212 330 217 305T232 249T262 185T313 125T391 81T505 63Q593 63 662 96T779 183T852 303T877 434Q877 489 859 536T801 618T695 673T537 693L545
760Q636 762 707 787T827 857T902 964T928 1105Q928 1168 909 1214T856 1291T777 1337T681 1352Q620 1352 566 1332T468 1275T391 1187T340 1075Q331 1054 320 1047T289 1042L243 1049Z" />
<glyph unicode="4" glyph-name="null" horiz-adv-x="1160" d="M725 481L816 1227Q819 1259 828 1293L169 481H725ZM1042 481L1036 431Q1034 420 1028 414T1008 407H797L747 0H666L716 407H102Q88 407 81 413T73 431L69 476L839 1416H921L806 481H1042Z" />
<glyph unicode="5" glyph-name="null" horiz-adv-x="1160" d="M1030 1415L1025 1375Q1023 1355 1009 1343T965 1330H499L363 855Q487 886 587 886Q678 886 747 859T861 783T930 668T953 523Q953 398 911 298T797 128T632 21T438 -16Q384 -16 336 -6T247 22T173
62T114 109L146 147Q158 162 176 162Q188 162 208 147T262 114T341 80T452 65Q536 65 610 96T739 185T826 327T858 515Q858 579 840 633T786 726T693 787T560 809Q508 809 448 800T320 770L264 789L442 1415H1030Z" />
<glyph unicode="6" glyph-name="null" horiz-adv-x="1067" d="M510 61Q597 61 668 92T791 178T870 308T898 471Q898 540 879 596T823 691T734 751T618 773Q531 773 460 739T339 649T260 520T232 373Q232 305 250 248T304 150T392 85T510 61ZM462 863Q430 825 403
790T353 723Q413 780 490 812T652 845Q728 845 790 819T897 746T966 631T991 483Q991 374 954 283T851 125T696 21T502 -16Q419 -16 353 11T241 89T169 213T144 377Q144 436 157 493T197 610T266 734T366 871L784 1392Q792 1403 806 1409T836 1415H917L462 863Z"
/>
<glyph unicode="7" glyph-name="null" horiz-adv-x="1160" d="M1121 1415L1116 1373Q1114 1356 1109 1344T1098 1324L346 35Q337 20 323 10T287 0H224L979 1283Q988 1297 996 1308T1015 1330H269Q258 1330 252 1337T246 1356L253 1415H1121Z" />
<glyph unicode="8" glyph-name="null" horiz-adv-x="1160" d="M513 58Q594 58 662 84T779 158T857 273T885 425Q885 504 858 556T788 640T693 685T591 699Q552 699 510 692T426 668T347 624T281 555T236 459T219 333Q219 271 239 221T298 134T391 78T513 58ZM347
1027Q347 977 361 932T407 851T486 794T600 773Q681 773 742 800T844 874T906 981T927 1107Q927 1160 911 1206T862 1286T783 1339T673 1359Q597 1359 537 1334T434 1263T370 1158T347 1027ZM735 738Q790 724 835 698T912 633T962 542T980 425Q980 323 944 241T844
102T693 15T504 -16Q418 -16 348 8T228 76T151 184T124 325Q124 415 149 485T218 606T324 690T459 739Q359 772 308 848T256 1026Q256 1110 287 1184T374 1312T509 1399T681 1431Q761 1431 823 1406T929 1338T995 1237T1018 1112Q1018 1044 999 984T944 876T855
792T735 738Z" />
<glyph unicode="9" glyph-name="null" horiz-adv-x="1160" d="M569 675Q653 675 721 708T838 794T912 915T939 1053Q939 1119 920 1174T866 1269T781 1331T672 1354Q593 1354 526 1326T410 1245T332 1121T304 960Q304 894 322 842T375 752T459 695T569 675ZM729
585Q761 627 789 663T840 735Q779 672 699 638T534 603Q462 603 403 628T300 698T234 808T210 951Q210 1054 247 1141T348 1293T498 1394T682 1431Q761 1431 824 1403T933 1325T1002 1205T1027 1050Q1027 982 1013 924T972 810T904 696T812 568L405 22Q397 11 384
6T355 0H271L729 585Z" />
<glyph unicode=":" glyph-name="null" horiz-adv-x="473" d="M83 77Q83 96 90 113T109 142T138 162T175 170Q194 170 211 163T240 143T260 113T268 77Q268 57 261 41T241 12T211 -8T175 -15Q136 -15 110 11T83 77ZM173 874Q173 893 180 910T199 939T228 959T265
967Q284 967 301 960T330 940T350 910T358 874Q358 854 351 838T331 809T301 789T265 782Q226 782 200 808T173 874Z" />
<glyph unicode=";" glyph-name="null" horiz-adv-x="493" d="M108 -238Q103 -234 102 -230T101 -220Q101 -212 116 -194T152 -147T190 -81T213 1Q198 -4 182 -4Q145 -4 122 21T98 85Q98 120 122 145T185 170Q228 170 251 141T275 63Q275 22 265 -20T234 -104T186
-183T124 -253L108 -238ZM182 874Q182 893 189 910T208 939T237 959T274 967Q293 967 310 960T339 940T359 910T367 874Q367 854 360 838T340 809T310 789T274 782Q235 782 209 808T182 874Z" />
<glyph unicode="&lt;" glyph-name="null" horiz-adv-x="1160" d="M983 1077L975 1012Q974 991 944 977L356 697Q325 682 282 672Q319 663 350 646L869 365Q894 353 892 330L883 265L181 651L184 682H185L186 692L983 1077Z" />
<glyph unicode="=" glyph-name="null" horiz-adv-x="1160" d="M157 555H983L975 484H148L157 555ZM195 867H1021L1013 796H187L195 867Z" />
<glyph unicode="&gt;" glyph-name="null" horiz-adv-x="1160" d="M990 660L989 651L191 265L199 330Q201 341 207 349T230 365L818 646Q851 662 893 671Q856 680 824 697L305 977Q280 991 283 1012L291 1077L994 692L990 660Z" />
<glyph unicode="?" glyph-name="null" horiz-adv-x="808" d="M167 1290Q196 1317 230 1342T305 1387T392 1419T490 1431Q551 1431 602 1412T691 1358T750 1275T771 1167Q771 1084 747 1025T685 922T602 846T517 783T446 722T408 651L376 487H312L329 657Q333 701
360 735T427 801T512 863T595 935T658 1027T684 1151Q684 1198 668 1235T624 1299T557 1340T474 1354Q412 1354 366 1337T288 1298T236 1260T206 1242Q200 1242 196 1244T187 1254L167 1290ZM228 77Q228 96 235 113T254 142T283 162T320 170Q339 170 356 163T386
143T406 113T414 77Q414 38 387 12T320 -15Q281 -15 255 11T228 77Z" />
<glyph unicode="@" glyph-name="null" horiz-adv-x="1528" d="M1031 847Q1010 853 987 856T933 860Q874 860 820 842T720 791T637 714T573 621T532 518T517 412Q517 379 524 351T547 301T586 268T642 256Q675 256 711 268T783 311T854 397T919 535L1031 847ZM1253
-84Q1142 -158 1014 -198T733 -238Q595 -238 479 -193T280 -61T149 150T102 434Q102 563 132 679T215 895T341 1075T503 1212T689 1299T892 1330Q1004 1330 1104 1294T1281 1186T1401 1009T1445 767Q1445 638 1411 532T1321 349T1191 230T1037 188Q957 188 922
234T894 368Q831 275 761 234T615 192Q570 192 537 208T483 252T452 319T441 401Q441 460 457 522T505 642T581 751T682 840T807 900T953 922Q1002 922 1044 914T1119 888L992 541Q959 448 953 391T960 303T999 261T1057 250Q1116 250 1173 286T1276 390T1348 553T1376
767Q1376 891 1338 985T1234 1141T1078 1234T885 1266Q793 1266 705 1239T537 1160T391 1036T276 871T200 671T172 440Q172 292 215 178T334 -14T514 -132T740 -172Q877 -172 993 -138T1205 -42Q1223 -31 1233 -36T1246 -53L1253 -84Z" />
<glyph unicode="A" glyph-name="null" horiz-adv-x="1217" d="M888 513L713 1233Q709 1251 705 1272T697 1319Q687 1294 678 1273T660 1232L308 513H888ZM1117 0H1040Q1026 0 1018 7T1007 26L906 440H272L69 26Q64 15 53 8T29 0H-47L659 1415H758L1117 0Z" />
<glyph unicode="B" glyph-name="null" horiz-adv-x="1176" d="M557 79Q743 79 842 169T941 426Q941 484 921 530T861 610T764 661T632 679H307L233 79H557ZM388 1336L316 751H595Q692 751 763 780T880 856T948 965T970 1091Q970 1210 896 1273T666 1336H388ZM675
1415Q777 1415 851 1394T974 1334T1046 1237T1070 1108Q1070 1040 1049 979T987 867T888 779T756 724Q895 701 967 626T1040 429Q1040 331 1007 252T910 116T755 30T549 0H124L298 1415H675Z" />
<glyph unicode="C" glyph-name="null" horiz-adv-x="1258" d="M667 69Q740 69 798 81T901 112T978 152T1034 192T1071 223T1093 236Q1102 236 1106 230L1142 188Q1050 95 931 40T651 -16Q529 -16 431 28T263 153T156 347T118 598Q118 783 174 936T329 1200T561
1370T850 1431Q923 1431 981 1420T1087 1386T1176 1331T1255 1256L1223 1216Q1212 1204 1197 1204Q1188 1204 1177 1214T1148 1240T1105 1274T1043 1308T957 1334T844 1345Q712 1345 598 1293T400 1145T268 912T220 605Q220 481 253 382T345 213T486 106T667 69Z"
/>
<glyph unicode="D" glyph-name="null" horiz-adv-x="1413" d="M1318 815Q1318 690 1294 581T1224 382T1114 220T969 100T796 26T600 0H124L298 1415H774Q899 1415 1000 1373T1171 1252T1280 1063T1318 815ZM1215 813Q1215 934 1184 1031T1094 1195T952 1298T764
1334H388L233 81H609Q741 81 852 130T1044 274T1170 504T1215 813Z" />
<glyph unicode="E" glyph-name="null" horiz-adv-x="1078" d="M388 1333L317 757H884L873 677H307L234 82H918L907 0H124L298 1415H1080L1069 1333H388Z" />
<glyph unicode="F" glyph-name="null" horiz-adv-x="1058" d="M388 1333L314 734H905L893 651H304L224 0H124L298 1415H1080L1069 1333H388Z" />
<glyph unicode="G" glyph-name="null" horiz-adv-x="1367" d="M1183 139Q1130 102 1075 73T957 25T824 -5T672 -16Q545 -16 443 28T268 154T158 348T119 600Q119 787 174 940T328 1203T564 1371T865 1431Q942 1431 1005 1420T1120 1386T1215 1332T1296 1259L1265
1220Q1249 1195 1223 1209Q1209 1215 1186 1237T1121 1283T1015 1326T857 1345Q716 1345 599 1293T398 1145T267 912T220 603Q220 479 253 380T347 210T494 103T687 65Q754 65 810 72T915 95T1009 131T1099 180L1146 564H899Q888 564 882 570T877 586L883 641H1246L1183
139Z" />
<glyph unicode="H" glyph-name="null" horiz-adv-x="1403" d="M1306 1415L1132 0H1032L1115 679H307L224 0H124L298 1415H398L317 754H1125L1206 1415H1306Z" />
<glyph unicode="I" glyph-name="null" horiz-adv-x="495" d="M224 0H124L297 1415H397L224 0Z" />
<glyph unicode="J" glyph-name="null" horiz-adv-x="781" d="M577 441Q563 324 527 238T435 96T308 12T148 -16Q94 -16 50 -9T-37 13L-30 67Q-28 75 -23 82T-3 89Q7 89 19 86T48 78T90 71T150 67Q209 67 263 85T360 147T434 262T478 439L598 1415H697L577 441Z" />
<glyph unicode="K" glyph-name="null" horiz-adv-x="1180" d="M316 760H393Q410 760 423 761T447 767T469 779T490 798L1082 1386Q1098 1404 1112 1409T1146 1415H1227L585 778Q567 759 552 748T520 730Q555 718 578 680L1089 0H1009Q983 0 973 6T955 26L485 640Q477
651 470 659T452 672T427 680T391 683H307L223 0H124L297 1417H397L316 760Z" />
<glyph unicode="L" glyph-name="null" horiz-adv-x="933" d="M849 85L838 0H124L298 1415H397L233 85H849Z" />
<glyph unicode="M" glyph-name="null" horiz-adv-x="1686" d="M1589 1415L1415 0H1328L1477 1209Q1480 1234 1486 1262L856 272Q840 247 815 247H799Q772 247 764 272L362 1265Q362 1235 359 1210L211 0H124L298 1415H366Q380 1415 387 1412T402 1396L806 400Q810
389 813 378T819 354Q829 376 843 400L1481 1396Q1491 1408 1498 1411T1520 1415H1589Z" />
<glyph unicode="N" glyph-name="null" horiz-adv-x="1403" d="M1306 1415L1132 0H1086Q1073 0 1065 5T1049 22L363 1254Q362 1242 362 1231T359 1209L211 0H124L298 1415H347Q361 1415 367 1412T381 1396L1067 164Q1068 178 1068 190T1071 214L1219 1415H1306Z" />
<glyph unicode="O" glyph-name="null" horiz-adv-x="1473" d="M1381 816Q1381 629 1327 476T1175 214T946 45T660 -15Q536 -15 436 29T266 155T157 349T119 599Q119 785 174 938T325 1201T553 1371T838 1431Q963 1431 1063 1387T1234 1261T1343 1067T1381 816ZM1278
814Q1278 937 1247 1035T1156 1203T1014 1310T827 1348Q697 1348 586 1296T394 1147T266 912T220 602Q220 479 252 381T343 213T485 107T671 69Q803 69 914 120T1106 269T1232 503T1278 814Z" />
<glyph unicode="P" glyph-name="null" horiz-adv-x="1078" d="M543 651Q637 651 712 681T841 764T924 890T953 1049Q953 1185 872 1260T627 1336H387L303 651H543ZM637 1415Q845 1415 949 1322T1053 1059Q1053 951 1016 862T911 708T747 607T533 571H293L223 0H124L297
1415H637Z" />
<glyph unicode="Q" glyph-name="null" horiz-adv-x="1473" d="M220 602Q220 479 252 381T343 213T485 107T671 69Q803 69 914 120T1106 269T1232 503T1278 814Q1278 937 1247 1035T1156 1203T1014 1310T827 1348Q697 1348 586 1296T394 1147T266 912T220 602ZM925
36Q864 11 798 -2T660 -15Q536 -15 436 29T266 155T157 349T119 599Q119 785 174 938T325 1201T553 1371T838 1431Q963 1431 1063 1387T1234 1261T1343 1067T1381 816Q1381 688 1355 575T1280 368T1163 200T1010 77L1300 -312H1222Q1183 -312 1163 -288L925 36Z"
/>
<glyph unicode="R" glyph-name="null" horiz-adv-x="1128" d="M534 715Q629 715 704 741T833 815T914 931T942 1082Q942 1210 861 1273T624 1336H388L311 715H534ZM633 1415Q838 1415 939 1334T1041 1097Q1041 1005 1011 929T926 795T794 702T622 653Q641 641
657 614L1026 0H941Q925 0 915 5T896 25L555 601Q541 623 525 632T471 641H302L223 0H124L297 1415H633Z" />
<glyph unicode="S" glyph-name="null" horiz-adv-x="996" d="M910 1244Q899 1227 884 1227Q872 1227 855 1246T809 1287T733 1329T616 1348Q540 1348 481 1324T380 1257T316 1158T294 1037Q294 976 319 935T384 864T476 813T582 771T688 726T780 666T846 581T871
458Q871 362 838 276T744 125T594 22T397 -16Q269 -16 181 33T33 169L66 212Q80 226 94 226Q103 226 114 214T142 185T181 147T236 109T310 79T409 67Q493 67 561 95T677 174T750 291T776 437Q776 499 751 540T686 611T594 660T488 700T382 744T290 803T225 890T200
1017Q200 1098 229 1173T312 1305T446 1397T626 1431Q728 1431 805 1394T938 1284L910 1244Z" />
<glyph unicode="T" glyph-name="null" horiz-adv-x="1065" d="M1127 1331H672L508 0H409L573 1331H114L124 1415H1137L1127 1331Z" />
<glyph unicode="U" glyph-name="null" horiz-adv-x="1353" d="M612 70Q705 70 782 106T918 205T1015 354T1065 539L1173 1415H1272L1165 539Q1150 422 1103 321T983 144T812 26T600 -17Q486 -17 400 26T259 144T182 320T174 539L281 1415H380L273 540Q261 441
277 355T337 206T449 106T612 70Z" />
<glyph unicode="V" glyph-name="null" horiz-adv-x="1212" d="M1287 1415L577 0H488L124 1415H203Q217 1415 225 1408T235 1389L529 208Q534 187 539 163T547 113Q556 139 565 163T586 208L1169 1389Q1174 1400 1184 1407T1209 1415H1287Z" />
<glyph unicode="W" glyph-name="null" horiz-adv-x="1876" d="M1930 1415L1347 0H1258L1026 1233Q1023 1254 1020 1286Q1015 1271 1011 1258T1001 1233L466 0H378L142 1415H219Q249 1415 251 1389L439 213Q441 194 442 174T446 131Q453 153 460 174T475 213L986
1389Q991 1400 1001 1407T1025 1415H1047Q1073 1415 1080 1389L1301 213Q1304 195 1306 175T1311 132Q1317 154 1324 174T1337 213L1813 1389Q1816 1400 1828 1407T1854 1415H1930Z" />
<glyph unicode="X" glyph-name="null" horiz-adv-x="1166" d="M673 761L1069 0H980Q966 0 960 8T949 24L604 704Q598 690 589 680L89 24Q72 0 49 0H-49L535 756L185 1415H274Q288 1415 294 1410T306 1394L607 807Q614 821 622 833L1054 1397Q1066 1415 1086 1415H1185L673
761Z" />
<glyph unicode="Y" glyph-name="null" horiz-adv-x="1103" d="M600 583L527 0H428L501 584L120 1415H208Q234 1415 242 1390L541 722Q547 705 552 689T560 655Q568 672 577 688T597 722L1061 1390Q1068 1401 1077 1408T1100 1415H1183L600 583Z" />
<glyph unicode="Z" glyph-name="null" horiz-adv-x="1097" d="M1123 1382Q1121 1373 1118 1367T1107 1351L133 82H957L946 0H-13L-8 33Q-6 41 -3 47T6 62L982 1333H175L186 1415H1128L1123 1382Z" />
<glyph unicode="[" glyph-name="null" horiz-adv-x="559" d="M599 1481Q597 1469 589 1462T567 1454H379L175 -200H364Q377 -200 384 -208T389 -228L384 -263H90L308 1516H602L599 1481Z" />
<glyph unicode="\" glyph-name="null" horiz-adv-x="800" d="M175 1445H214Q253 1445 262 1409L646 -84H608Q592 -84 578 -75T558 -47L175 1445Z" />
<glyph unicode="]" glyph-name="null" horiz-adv-x="562" d="M259 -263H-36L-32 -228Q-30 -216 -22 -208T1 -200H189L391 1454H204Q190 1454 183 1461T178 1481L182 1516H478L259 -263Z" />
<glyph unicode="^" glyph-name="null" horiz-adv-x="1160" d="M1004 800H937Q926 800 917 806T903 823L662 1259Q643 1293 635 1321Q630 1306 624 1291T608 1259L368 823Q363 815 355 808T333 800H263L604 1415H663L1004 800Z" />
<glyph unicode="_" glyph-name="null" horiz-adv-x="887" d="M707 -207L698 -272H-26L-19 -207H707Z" />
<glyph unicode="`" glyph-name="null" horiz-adv-x="736" d="M424 1431Q446 1431 456 1424T475 1399L592 1161H542Q531 1161 524 1164T511 1178L339 1431H424Z" />
<glyph unicode="a" glyph-name="null" horiz-adv-x="997" d="M792 917Q762 928 730 932T665 937Q565 937 474 888T314 757T204 569T163 349Q163 215 208 141T350 66Q407 66 462 98T567 188T662 327T741 508L792 917ZM727 346Q689 266 644 200T546 86T437 13T319
-13Q257 -13 210 11T131 81T83 190T67 334Q67 421 89 504T152 663T248 801T372 910T517 982T676 1008Q735 1008 787 998T890 961L773 0H727Q707 0 700 11T693 36L727 346Z" />
<glyph unicode="b" glyph-name="null" horiz-adv-x="1031" d="M197 206Q219 166 246 139T305 94T369 70T438 62Q501 62 555 87T654 157T733 259T791 383T827 516T840 650Q840 784 789 858T640 933Q583 933 526 901T415 811T315 671T232 489L197 206ZM253 659Q292
738 339 802T440 913T552 984T671 1010Q736 1010 785 985T867 915T917 804T934 659Q934 582 918 503T873 349T801 208T704 93T586 16T449 -13Q365 -13 295 25T182 140L163 32Q158 16 152 8T128 0H81L257 1455H350L253 659Z" />
<glyph unicode="c" glyph-name="null" horiz-adv-x="911" d="M801 182Q748 123 701 85T608 25T515 -5T415 -13Q329 -13 266 16T160 99T97 225T76 384Q76 463 92 540T140 688T215 817T314 919T433 986T571 1011Q620 1011 659 1002T732 975T792 932T842 876L814
843Q805 832 793 832Q783 832 769 848T730 882T666 917T568 933Q484 933 412 888T286 767T202 592T171 384Q171 315 186 256T234 154T316 87T432 63Q485 63 527 74T601 103T658 140T702 178T734 206T759 218Q770 218 780 208L801 182V182Z" />
<glyph unicode="d" glyph-name="null" horiz-adv-x="1032" d="M809 793Q787 832 760 859T701 903T636 927T568 935Q505 935 451 910T352 840T273 738T215 615T179 481T166 348Q166 214 217 139T366 64Q423 64 480 96T590 186T690 325T773 506L809 793ZM983 1455L805
0H759Q739 0 732 11T725 36L758 349Q719 268 671 202T568 87T455 13T335 -13Q270 -13 221 12T139 83T89 194T72 340Q72 416 88 495T133 649T205 789T302 904T420 981T557 1010Q638 1010 706 975T818 869L891 1455H983Z" />
<glyph unicode="e" glyph-name="null" horiz-adv-x="937" d="M573 939Q493 939 429 906T315 815T232 684T182 528Q309 542 401 560T557 599T661 644T722 693T751 746T759 802Q759 823 750 847T718 892T661 925T573 939ZM818 185Q769 133 723 96T629 34T530 -1T421
-13Q338 -13 274 14T165 92T98 215T75 378Q75 453 90 529T134 675T207 806T307 912T431 983T578 1009Q651 1009 701 989T783 938T829 872T843 805Q843 764 832 727T793 657T717 595T595 542T416 497T172 462Q170 442 169 421T167 380Q167 231 234 147T438 63Q491
63 533 74T609 104T668 142T714 180T748 209T775 221Q787 221 796 211L818 185Z" />
<glyph unicode="f" glyph-name="null" horiz-adv-x="616" d="M331 894L225 21L183 -209Q171 -250 134 -250H100L239 893L114 901Q102 903 96 909T91 927L95 964H247L263 1090Q274 1175 303 1239T375 1347T474 1411T592 1433Q620 1433 647 1428T698 1412L688 1364Q686
1356 679 1355T661 1354T633 1358T596 1361Q550 1361 510 1346T438 1299T384 1214T353 1087L337 964H618L608 894H331Z" />
<glyph unicode="g" glyph-name="null" horiz-adv-x="924" d="M418 425Q482 425 532 452T617 522T670 621T689 733Q689 837 634 889T486 942Q421 942 371 917T287 849T235 753T217 641Q217 535 271 480T418 425ZM613 93Q469 114 362 104T185 62T79 -19T43 -123Q43
-166 62 -199T118 -255T205 -290T318 -302Q397 -302 461 -281T570 -225T641 -145T666 -52Q667 -3 651 32T612 96L613 93ZM930 960L927 928Q925 918 919 911T899 901L737 888Q755 857 765 820T775 736Q774 681 761 636T727 554T684 484T640 420T607 357T594 289Q593
261 605 237T635 189T673 141T712 89T741 28T753 -46Q752 -109 721 -167T631 -271T492 -343T310 -370Q231 -370 166 -354T53 -308T-21 -233T-47 -133Q-46 -49 4 13T139 112T334 161T564 156Q547 179 535 205T523 263Q523 298 535 334T581 421Q541 393 495 378T395
363Q338 363 289 381T205 434T150 521T130 641Q130 710 154 776T225 895T340 978T495 1010Q598 1010 671 960H930Z" />
<glyph unicode="h" glyph-name="null" horiz-adv-x="1031" d="M259 696Q299 770 347 828T449 927T559 989T672 1010Q737 1010 783 985T856 912T891 795T889 636L814 0H720L795 636Q812 778 776 854T641 931Q587 931 531 904T423 825T323 702T240 539L175 0H81L257
1455H351L259 696Z" />
<glyph unicode="i" glyph-name="null" horiz-adv-x="423" d="M306 995L185 0H92L213 995H306ZM379 1338Q379 1320 372 1305T352 1277T325 1258T293 1251Q276 1251 261 1258T235 1277T217 1304T210 1338Q210 1356 217 1372T235 1400T262 1420T294 1427Q310 1427
325 1420T353 1401T372 1373T379 1338Z" />
<glyph unicode="j" glyph-name="null" horiz-adv-x="422" d="M306 995L168 -127Q162 -179 142 -223T91 -299T16 -350T-81 -369Q-110 -369 -131 -364T-171 -348L-161 -300Q-157 -291 -152 -290T-140 -289T-121 -293T-91 -296Q-17 -296 23 -252T75 -127L213 995H306ZM380
1338Q380 1320 373 1305T354 1277T327 1258T295 1251Q278 1251 263 1258T237 1277T218 1304T211 1338Q211 1356 218 1372T236 1400T263 1420T295 1427Q311 1427 326 1420T354 1401T373 1373T380 1338Z" />
<glyph unicode="k" glyph-name="null" horiz-adv-x="885" d="M351 1455L242 568H280Q297 568 308 572T334 591L746 970Q757 982 769 988T798 995H879L424 578Q413 567 404 559T384 545Q397 537 406 527T424 502L788 0H709Q695 0 685 4T667 23L337 471Q324 490
311 496T270 502H234L173 0H80L258 1455H351Z" />
<glyph unicode="l" glyph-name="null" horiz-adv-x="418" d="M90 0L266 1455H359L182 0H90Z" />
<glyph unicode="m" glyph-name="null" horiz-adv-x="1560" d="M81 0L201 998H244Q279 998 279 962L251 684Q329 839 431 924T646 1010Q704 1010 742 989T801 928T828 828T828 693Q867 773 913 832T1011 931T1117 990T1224 1010Q1289 1010 1331 985T1397 912T1424
795T1418 636L1343 0H1250L1325 636Q1334 707 1333 762T1317 854T1273 911T1194 930Q1145 930 1095 908T996 840T904 727T825 567L758 0H665L740 636Q749 707 749 762T736 854T695 911T617 930Q503 930 407 826T237 532L174 0H81Z" />
<glyph unicode="n" glyph-name="null" horiz-adv-x="1032" d="M251 675Q291 754 340 816T445 922T558 987T675 1010Q739 1010 784 985T857 912T893 795T891 636L816 0H722L797 636Q814 778 778 854T643 930Q587 930 531 902T421 821T320 694T237 526L176 0H82L201
998H244Q279 998 279 962L251 675Z" />
<glyph unicode="o" glyph-name="null" horiz-adv-x="1026" d="M441 62Q528 62 599 107T722 228T800 401T828 602Q828 762 757 848T560 934Q473 934 402 889T280 770T201 598T173 396Q173 237 243 150T441 62ZM433 -13Q353 -13 288 15T176 96T104 224T78 396Q78
517 114 628T215 824T371 959T569 1010Q649 1010 714 982T826 901T898 773T924 603Q924 482 888 371T786 175T631 38T433 -13Z" />
<glyph unicode="p" glyph-name="null" horiz-adv-x="1032" d="M198 205Q242 126 306 94T439 62Q502 62 556 87T655 157T734 259T792 383T828 516T841 650Q841 784 790 858T641 933Q584 933 527 901T416 811T316 672T233 490L198 205ZM249 649Q288 730 336 796T439
910T552 984T672 1010Q737 1010 786 985T868 915T918 804T935 659Q935 582 919 503T874 349T802 208T705 93T587 16T450 -13Q369 -13 301 23T189 129L130 -352H38L202 998H245Q280 998 280 962L249 649Z" />
<glyph unicode="q" glyph-name="null" horiz-adv-x="998" d="M793 917Q763 928 731 932T665 937Q598 937 535 915T417 852T315 757T234 637T182 498T163 349Q163 215 208 141T351 66Q408 66 463 98T568 188T662 327T742 508L793 917ZM719 328Q681 251 637 189T542
81T436 12T320 -13Q257 -13 210 11T132 81T84 190T68 334Q68 421 90 504T152 663T249 801T372 910T517 982T676 1008Q736 1008 788 998T891 961L730 -352H676Q653 -352 645 -338T640 -299L719 328Z" />
<glyph unicode="r" glyph-name="null" horiz-adv-x="657" d="M250 667Q291 765 339 837T442 951T556 1003T676 989L659 900Q591 926 530 913T416 849T317 712T235 508L174 0H81L201 998H244Q279 998 279 962L250 667Z" />
<glyph unicode="s" glyph-name="null" horiz-adv-x="786" d="M697 873Q689 859 675 859Q665 859 651 871T612 899T550 927T458 940Q407 940 362 923T283 878T230 812T210 732Q210 691 229 663T279 615T350 579T432 549T513 516T584 471T635 408T654 317Q654 253
629 193T556 87T442 12T293 -16Q197 -16 132 17T19 105L43 139Q54 155 70 155Q80 155 95 139T136 104T203 68T306 52Q366 52 414 71T497 125T551 203T570 298Q570 342 551 372T501 423T430 460T348 489T267 521T196 564T145 625T126 713Q126 771 151 824T221 919T328
985T465 1010Q549 1010 610 984T720 906L697 873Z" />
<glyph unicode="t" glyph-name="null" horiz-adv-x="682" d="M153 167Q153 173 153 182T155 209T160 255T169 328L237 893H106Q96 893 90 899T86 916L91 953L248 965L314 1321Q316 1330 323 1337T340 1344H386L339 964H627L619 893H331L262 331Q257 290 254 264T249
222T247 197T246 185Q246 120 276 91T355 62Q388 62 413 72T458 95T489 118T507 129Q517 129 522 119L540 77Q500 35 443 10T329 -16Q247 -16 201 29T153 167Z" />
<glyph unicode="u" glyph-name="null" horiz-adv-x="1032" d="M925 995L805 0H761Q742 0 734 10T725 37L755 320Q714 241 665 179T562 75T449 10T332 -13Q204 -13 149 85T116 362L191 995H285L210 362Q193 219 229 143T364 66Q419 66 475 94T585 174T685 300T768
466L831 995H925Z" />
<glyph unicode="v" glyph-name="null" horiz-adv-x="927" d="M940 995L430 0H352L85 995H158Q172 995 179 988T189 971L392 186Q396 163 398 141T403 95Q410 118 418 140T437 186L834 971Q839 982 848 988T869 995H940Z" />
<glyph unicode="w" glyph-name="null" horiz-adv-x="1410" d="M1410 995L983 0H915Q899 0 896 21L744 829Q739 853 738 876Q734 864 730 853T721 829L368 21Q360 0 344 0H279L95 995H162Q188 995 193 971L326 186Q331 142 332 101Q340 122 348 143T365 186L707
978Q714 1000 736 1000H773Q795 1000 797 978L944 186Q948 164 950 143T955 101Q962 121 969 142T984 186L1310 971Q1315 982 1324 988T1344 995H1410Z" />
<glyph unicode="x" glyph-name="null" horiz-adv-x="872" d="M489 531L768 0H688Q664 0 655 22L421 479Q413 463 405 451L71 20Q64 12 57 6T37 0H-43L371 533L120 995H200Q213 995 219 992T230 980L439 582Q446 597 455 609L743 978Q753 995 770 995H854L489 531Z" />
<glyph unicode="y" glyph-name="null" horiz-adv-x="929" d="M944 995L253 -324Q239 -352 212 -352H145L355 38L88 995H162Q176 995 183 989T192 971L402 197Q406 182 407 167T411 137Q417 152 424 167T438 197L839 974Q844 985 853 990T871 995H944Z" />
<glyph unicode="z" glyph-name="null" horiz-adv-x="827" d="M808 995L803 955Q802 936 784 917L113 75H672L664 0H-10L-6 38Q-6 46 -1 56T12 75L685 920H132L142 995H808Z" />
<glyph unicode="{" glyph-name="null" horiz-adv-x="554" d="M594 1516L590 1476Q588 1465 579 1460T562 1454H533Q490 1454 453 1437T388 1385T344 1301T326 1185Q324 1144 325 1102T329 1019T333 937T334 859Q333 807 319 767T281 698T229 651T170 626Q194 620
215 607T251 573T276 526T286 467Q286 406 269 347T232 229T194 108T177 -19Q177 -60 188 -93T218 -150T266 -187T329 -200H360Q368 -200 375 -206T381 -223L376 -263H325Q269 -263 227 -245T155 -193T111 -116T96 -19Q96 49 113 110T152 230T190 347T208 467Q208
524 174 560T83 597L90 656Q164 656 210 714T256 891Q256 951 249 1020T242 1150Q242 1235 263 1302T324 1417T418 1490T543 1516H594Z" />
<glyph unicode="|" glyph-name="null" horiz-adv-x="490" d="M205 1517H280V-352H205V1517Z" />
<glyph unicode="}" glyph-name="null" horiz-adv-x="555" d="M237 1516Q292 1516 334 1498T406 1446T450 1369T465 1272Q465 1204 448 1143T410 1023T372 906T355 786Q355 729 388 693T480 656L472 597Q399 597 353 539T306 362Q306 333 308 300T312 233T317 166T319
103Q319 18 298 -49T237 -164T143 -237T18 -263H-33L-27 -223Q-26 -212 -18 -206T-1 -200H29Q71 -200 108 -183T174 -131T218 -47T236 68Q237 109 236 151T233 234T230 316T229 393Q230 445 244 486T282 556T333 602T392 627Q344 639 310 680T275 786Q275 847 292
906T329 1024T367 1145T384 1272Q384 1354 343 1404T232 1454H203Q194 1454 187 1459T182 1476L186 1516H237Z" />
<glyph unicode="~" glyph-name="null" horiz-adv-x="1160" d="M780 567Q817 567 847 580T898 618T930 675T943 747H1020Q1020 692 1004 645T958 563T885 508T785 488Q733 488 680 507T574 551T473 594T381 614Q343 614 313 601T262 563T230 506T218 434H140Q140
489 156 536T202 618T276 673T376 693Q427 693 480 674T586 630T688 587T780 567Z" />
</font>
</defs>
</svg>
